{"asset":{"version":"2.0","generator":"Nagata ground guide","extras":{"units":"schematic; not surveyed metres"}},"scene":0,"scenes":[{"nodes":[0]}],"nodes":[{"mesh":0,"name":"長田高校 体育祭グラウンド（概略）"}],"meshes":[{"primitives":[{"attributes":{"POSITION":0},"material":0,"mode":4},{"attributes":{"POSITION":1},"material":1,"mode":4},{"attributes":{"POSITION":2},"material":2,"mode":4},{"attributes":{"POSITION":3},"material":3,"mode":4},{"attributes":{"POSITION":4},"material":4,"mode":4}]}],"materials":[{"name":"#e6e2d7","doubleSided":true,"pbrMetallicRoughness":{"baseColorFactor":[0.9019607843137255,0.8862745098039215,0.8431372549019608,1],"metallicFactor":0,"roughnessFactor":1}},{"name":"#8a857e","doubleSided":true,"pbrMetallicRoughness":{"baseColorFactor":[0.5411764705882353,0.5215686274509804,0.49411764705882355,1],"metallicFactor":0,"roughnessFactor":1}},{"name":"#111111","doubleSided":true,"pbrMetallicRoughness":{"baseColorFactor":[0.06666666666666667,0.06666666666666667,0.06666666666666667,1],"metallicFactor":0,"roughnessFactor":1}},{"name":"#f5f2e9","doubleSided":true,"pbrMetallicRoughness":{"baseColorFactor":[0.9607843137254902,0.9490196078431372,0.9137254901960784,1],"metallicFactor":0,"roughnessFactor":1}},{"name":"#ffe600","doubleSided":true,"pbrMetallicRoughness":{"baseColorFactor":[1,0.9019607843137255,0,1],"metallicFactor":0,"roughnessFactor":1}}],"buffers":[{"byteLength":62424,"uri":"data:application/octet-stream;base64,"}],"bufferViews":[{"buffer":0,"byteOffset":0,"byteLength":216,"target":34962},{"buffer":0,"byteOffset":216,"byteLength":38592,"target":34962},{"buffer":0,"byteOffset":38808,"byteLength":20808,"target":34962},{"buffer":0,"byteOffset":59616,"byteLength":2592,"target":34962},{"buffer":0,"byteOffset":62208,"byteLength":216,"target":34962}],"accessors":[{"bufferView":0,"componentType":5126,"count":18,"type":"VEC3","min":[-85,-1,-56],"max":[85,-1,57]},{"bufferView":1,"componentType":5126,"count":3216,"type":"VEC3","min":[-67.8499984741211,0.07999999821186066,-37.849998474121094],"max":[67.8499984741211,0.15000000596046448,37.849998474121094]},{"bufferView":2,"componentType":5126,"count":1734,"type":"VEC3","min":[-82.27479553222656,0,-52.27479553222656],"max":[82.27479553222656,4,53.70000076293945]},{"bufferView":3,"componentType":5126,"count":216,"type":"VEC3","min":[-82.47542572021484,4,-52.475425720214844],"max":[82.47542572021484,7,54]},{"bufferView":4,"componentType":5126,"count":18,"type":"VEC3","min":[-12,4,46],"max":[12,7,54]}]}